<!DOCTYPE svg PUBLIC "-//W3C//DTD SVG 1.1//EN" "http://www.w3.org/Graphics/SVG/1.1/DTD/svg11.dtd">
<!-- Uploaded to: SVG Repo, www.svgrepo.com, Transformed by: SVG Repo Mixer Tools -->
<svg width="800px" height="800px" viewBox="0 0 24 24" fill="none" xmlns="http://www.w3.org/2000/svg" stroke="#3f91de">
<g id="SVGRepo_bgCarrier" stroke-width="0"/>
<g id="SVGRepo_tracerCarrier" stroke-linecap="round" stroke-linejoin="round"/>
<g id="SVGRepo_iconCarrier"> <g clip-path="url(#3f91declip0_429_11119)"> <path d="M21 15V12C21 7.02944 16.9706 3 12 3C7.02944 3 3 7.02944 3 12V15" stroke="#3f91de" stroke-width="2.5" stroke-linecap="round"/> <path d="M3 15H6C6.55228 15 7 15.4477 7 16V19C7 20.1046 6.10457 21 5 21V21C3.89543 21 3 20.1046 3 19V15Z" stroke="#3f91de" stroke-width="2.5" stroke-linecap="round"/> <path d="M17 16C17 15.4477 17.4477 15 18 15H21V19C21 20.1046 20.1046 21 19 21V21C17.8954 21 17 20.1046 17 19V16Z" stroke="#3f91de" stroke-width="2.5" stroke-linecap="round"/> </g> <defs> <clipPath id="clip0_429_11119"> <rect width="24" height="24" fill="white"/> </clipPath> </defs> </g>
</svg>