<svg width="24" height="25" viewBox="0 0 24 25" fill="none" xmlns="http://www.w3.org/2000/svg">
<path d="M6.54 5.5625C6.6 6.4525 6.75 7.3225 6.99 8.1525L5.79 9.3525C5.38 8.1525 5.12 6.8825 5.03 5.5625H6.54ZM16.4 17.5825C17.25 17.8225 18.12 17.9725 19 18.0325V19.5225C17.68 19.4325 16.41 19.1725 15.2 18.7725L16.4 17.5825ZM7.5 3.5625H4C3.45 3.5625 3 4.0125 3 4.5625C3 13.9525 10.61 21.5625 20 21.5625C20.55 21.5625 21 21.1125 21 20.5625V17.0725C21 16.5225 20.55 16.0725 20 16.0725C18.76 16.0725 17.55 15.8725 16.43 15.5025C16.33 15.4625 16.22 15.4525 16.12 15.4525C15.86 15.4525 15.61 15.5525 15.41 15.7425L13.21 17.9425C10.38 16.4925 8.06 14.1825 6.62 11.3525L8.82 9.1525C9.1 8.8725 9.18 8.4825 9.07 8.1325C8.7 7.0125 8.5 5.8125 8.5 4.5625C8.5 4.0125 8.05 3.5625 7.5 3.5625Z" fill="#EAEAEA"/>
</svg>
